<svg xmlns="http://www.w3.org/2000/svg" width="19.627" height="19.627" viewBox="0 0 19.627 19.627">
  <g id="edit" transform="translate(-741.742 33.366)">
    <g id="Groupe_25" data-name="Groupe 25" transform="translate(741.742 -33.366)">
      <g id="Groupe_24" data-name="Groupe 24" transform="translate(0 0)">
        <path id="Tracé_5" data-name="Tracé 5" d="M18.857,26.967a.773.773,0,0,0-.773.773v5.976H1.548V17.179H7.524a.773.773,0,0,0,0-1.545H.776A.773.773,0,0,0,0,16.407V34.488a.773.773,0,0,0,.773.773H18.857a.773.773,0,0,0,.773-.773V27.74A.773.773,0,0,0,18.857,26.967Z" transform="translate(-0.003 -15.634)"/>
      </g>
    </g>
    <g id="Groupe_30" data-name="Groupe 30" transform="translate(749.147 -32.565)">
      <g id="Groupe_27" data-name="Groupe 27" transform="translate(0 0)">
        <g id="Groupe_26" data-name="Groupe 26">
          <path id="Tracé_6" data-name="Tracé 6" d="M156.438,2.335,154.281.177a.6.6,0,0,0-.855,0l-7.138,7.138a.6.6,0,0,0-.155.264l-.847,3a.605.605,0,0,0,.746.746l3-.847a.606.606,0,0,0,.264-.155l7.137-7.138A.6.6,0,0,0,156.438,2.335ZM148.557,9.36l-1.813.511.511-1.813,6.6-6.6,1.3,1.3Z" transform="translate(-145.264)"/>
        </g>
      </g>
      <g id="Groupe_29" data-name="Groupe 29" transform="translate(1.044 7.294)">
        <g id="Groupe_28" data-name="Groupe 28" transform="translate(0 0)">
          <rect id="Rectangle_80" data-name="Rectangle 80" width="1.21" height="3.051" transform="translate(0 0.855) rotate(-45)"/>
        </g>
      </g>
    </g>
  </g>
</svg>
