<?xml version="1.0" encoding="utf-8"?>
<!-- Generator: Adobe Illustrator 25.4.1, SVG Export Plug-In . SVG Version: 6.00 Build 0)  -->
<svg version="1.1" id="Calque_1" xmlns:svgjs="http://svgjs.com/svgjs"
	 xmlns="http://www.w3.org/2000/svg" xmlns:xlink="http://www.w3.org/1999/xlink" x="0px" y="0px" viewBox="0 0 512 512"
	 style="enable-background:new 0 0 512 512;" xml:space="preserve">
<g>
	<g>
		<g>
			<path d="M508.5,245.2c-31.1-40.7-68.4-76.3-110.6-105.3l72.2-72.2c7.3-7,7.5-18.6,0.5-25.9c-7-7.3-18.6-7.5-25.9-0.4
				c-0.2,0.1-0.3,0.3-0.5,0.4l-78.8,78.8c-33.6-18.5-71.1-28.5-109.4-29.3C117,91.4,8.1,239,3.5,245.2c-4.7,6.4-4.7,15.1,0,21.5
				c31.1,40.7,68.4,76.3,110.6,105.3l-72.2,72.2c-7.3,7-7.5,18.6-0.4,25.9s18.6,7.5,25.9,0.5c0.2-0.1,0.3-0.3,0.4-0.5l78.8-78.8
				c33.6,18.5,71.1,28.5,109.4,29.3c139,0,247.9-147.5,252.5-153.8C513.2,260.3,513.2,251.7,508.5,245.2z M140.7,345.5
				c-37.3-24.8-70.6-55-99.1-89.5C68.5,223.4,155.8,128,256,128c28.5,0.6,56.5,7.4,82.1,20.1l-31.7,31.7
				c-42-27.9-98.7-16.4-126.5,25.6c-20.3,30.6-20.3,70.4,0,101L140.7,345.5z M305.4,232.5c3.6,7.3,5.5,15.4,5.5,23.5
				c0,30.3-24.6,54.9-54.9,54.9c-8.1,0-16.2-1.9-23.5-5.5L305.4,232.5z M206.6,279.5c-3.6-7.3-5.5-15.4-5.5-23.5
				c0-30.3,24.6-54.9,54.9-54.9c8.1,0,16.2,1.9,23.5,5.5L206.6,279.5z M256,384c-28.5-0.6-56.5-7.4-82.1-20.1l31.7-31.7
				c42,27.9,98.7,16.4,126.5-25.6c20.3-30.6,20.3-70.4,0-101l39.1-39.1c37.2,24.8,70.6,55,99.1,89.5C443.5,288.6,356.2,384,256,384z
				"/>
		</g>
	</g>
</g>
</svg>
